<?xml version="1.0" standalone="no"?><!DOCTYPE svg PUBLIC "-//W3C//DTD SVG 1.1//EN" "http://www.w3.org/Graphics/SVG/1.1/DTD/svg11.dtd"><svg class="icon" height="512" viewBox="0 0 1024 1024" version="1.1" xmlns="http://www.w3.org/2000/svg"><path d="M509.170896 1022.725751S129.444695 598.145986 129.444695 388.914301a379.726201 379.726201 0 1 1 759.197552 0c0 210.505934-379.726201 635.085699-379.726201 635.085699m0-968.429237a334.108087 334.108087 0 0 0-331.304739 337.166285c0 186.295203 331.304739 560.669558 331.304739 560.669558s331.304739-375.648604 331.304739-560.669558a334.108087 334.108087 0 0 0-331.304739-337.166285m0 458.729639a158.771425 158.771425 0 1 1 158.261725-158.771425 158.516575 158.516575 0 0 1-158.261725 158.771425m0-273.708685a117.230908 117.230908 0 1 0 116.721208 117.230908A116.976058 116.976058 0 0 0 509.170896 241.101417m0 0" fill="#1F212B" /></svg>